# File created by Blade
# Date/Time:  Thu Jan 22 15:49:58 2015
# Frame Rate: 120.000 fps
#------------------------------------------------------
:FULLY-SPECIFIED
:DEGREES
891
root 2.843999 37.092652 5.017406 -3.054130 -5.113333 1.272586
RightUpLeg 10.944125 -5.153042 -3.807398
RightLeg -4.973004 -0.000000 0.000000
RightFoot -11.003116 -11.780707 16.043485
RightToeBase 12.979947 -0.000000 -0.000000
LeftUpLeg 10.358701 6.952399 3.656860
LeftLeg -2.613469 -0.000000 0.000000
LeftFoot -8.051176 8.052375 -17.143779
LeftToeBase 8.433447 -0.000000 -0.000000
Spine 1.662499 -4.809167 -4.553306
RightShoulder -18.425209 3.866253 -42.013366
RightArm 153.751407 42.800084 121.665987
RightForeArm 75.042083 0.000000 145.469731
RightHand 22.619536 -0.000000 12.417463
RightHandThumb1 -24.326973 -0.000000 -32.862282
LeftShoulder -28.675951 16.669720 42.783131
LeftArm 153.833570 -65.251436 -122.105906
LeftForeArm -45.491526 0.000000 93.199067
LeftHand -11.246765 -0.000000 -19.843774
LeftHandThumb1 -26.253704 0.000000 33.147579
Head 41.085885 10.010929 9.599522
892
root 2.852446 37.091268 5.026980 -3.014695 -4.962143 1.294710
RightUpLeg 10.937585 -5.224228 -3.838601
RightLeg -4.967139 -0.000000 0.000000
RightFoot -11.028384 -11.839261 16.018936
RightToeBase 12.879825 -0.000000 -0.000000
LeftUpLeg 10.296570 6.894845 3.619969
LeftLeg -2.591219 -0.000000 0.000000
LeftFoot -8.043044 7.974260 -17.094617
LeftToeBase 8.442879 -0.000000 -0.000000
Spine 1.617092 -4.872831 -4.508028
RightShoulder -18.497355 3.728328 -41.869240
RightArm 154.412447 43.066034 121.701337
RightForeArm 75.245366 -0.000000 145.461534
RightHand 22.504184 0.000000 12.940953
RightHandThumb1 -24.326973 -0.000000 -32.862282
LeftShoulder -28.746557 16.783505 42.732438
LeftArm 154.466176 -65.266685 -123.233918
LeftForeArm -45.414090 0.000000 93.697939
LeftHand -11.372184 -0.000000 -19.366882
LeftHandThumb1 -26.253704 0.000000 33.147579
Head 41.031603 9.923227 9.786075
893
root 2.859256 37.091352 5.038228 -2.975606 -4.789548 1.301998
RightUpLeg 10.942443 -5.296929 -3.849139
RightLeg -4.962842 -0.000000 0.000000
RightFoot -11.100818 -11.937504 16.085435
RightToeBase 12.956439 -0.000000 -0.000000
LeftUpLeg 10.238233 6.824607 3.600692
LeftLeg -2.578484 -0.000000 0.000000
LeftFoot -8.020776 7.886886 -17.078508
LeftToeBase 8.462326 -0.000000 -0.000000
Spine 1.566709 -4.942023 -4.440026
RightShoulder -18.582225 3.492863 -41.681413
RightArm 155.199472 43.304211 121.716737
RightForeArm 75.137778 -0.000000 145.447652
RightHand 22.340436 -0.000000 13.478276
RightHandThumb1 -24.326973 -0.000000 -32.862282
LeftShoulder -28.911050 17.009036 42.658924
LeftArm 154.989597 -65.080505 -124.329746
LeftForeArm -45.220311 -0.000000 94.239464
LeftHand -11.333679 -0.000000 -19.052889
LeftHandThumb1 -26.253704 0.000000 33.147579
Head 41.007904 9.871020 10.039695
894
root 2.870053 37.089167 5.049175 -2.935596 -4.635218 1.327612
RightUpLeg 10.926975 -5.381420 -3.895936
RightLeg -4.928369 -0.000000 0.000000
RightFoot -11.152734 -11.953229 16.081222
RightToeBase 12.907075 -0.000000 -0.000000
LeftUpLeg 10.186280 6.743069 3.550803
LeftLeg -2.579398 -0.000000 0.000000
LeftFoot -8.014016 7.836500 -17.055500
LeftToeBase 8.458588 -0.000000 -0.000000
Spine 1.528688 -5.012017 -4.342171
RightShoulder -18.724727 3.301997 -41.565918
RightArm 155.877683 43.524303 121.611975
RightForeArm 74.831359 0.000000 145.447100
RightHand 22.051237 0.000000 14.013277
RightHandThumb1 -24.326973 -0.000000 -32.862282
LeftShoulder -28.920344 17.026408 42.620598
LeftArm 155.511811 -65.214407 -125.406423
LeftForeArm -45.132861 -0.000000 94.720938
LeftHand -11.295178 -0.000000 -18.656879
LeftHandThumb1 -26.253704 0.000000 33.147579
Head 40.952574 9.991268 10.379969
895
root 2.876369 37.087505 5.059225 -2.904895 -4.498024 1.344375
RightUpLeg 10.923777 -5.395544 -3.911549
RightLeg -4.909320 -0.000000 0.000000
RightFoot -11.224246 -12.053895 16.112374
RightToeBase 12.914150 -0.000000 -0.000000
LeftUpLeg 10.152457 6.712607 3.526534
LeftLeg -2.591066 -0.000000 0.000000
LeftFoot -7.990688 7.756419 -17.000382
LeftToeBase 8.417319 -0.000000 -0.000000
Spine 1.491379 -5.057251 -4.280910
RightShoulder -18.829907 3.106688 -41.378348
RightArm 156.619611 43.799566 121.522054
RightForeArm 74.445112 -0.000000 145.456334
RightHand 21.826438 -0.000000 14.573322
RightHandThumb1 -24.326973 -0.000000 -32.862282
LeftShoulder -28.962082 17.121601 42.637584
LeftArm 155.967127 -65.221644 -126.450458
LeftForeArm -45.091620 -0.000000 95.230475
LeftHand -11.279728 -0.000000 -18.342823
LeftHandThumb1 -26.253704 0.000000 33.147579
Head 40.886952 10.030058 10.698827
896
root 2.884956 37.085378 5.070441 -2.882625 -4.357159 1.366418
RightUpLeg 10.946104 -5.426024 -3.949816
RightLeg -4.915257 -0.000000 0.000000
RightFoot -11.274511 -12.089152 16.147422
RightToeBase 12.949154 -0.000000 -0.000000
LeftUpLeg 10.128105 6.628762 3.487848
LeftLeg -2.601159 -0.000000 0.000000
LeftFoot -7.987512 7.715103 -16.964463
LeftToeBase 8.427275 -0.000000 -0.000000
Spine 1.449458 -5.083773 -4.216313
RightShoulder -18.913602 2.868842 -41.188229
RightArm 157.373411 44.122731 121.388453
RightForeArm 73.921017 -0.000000 145.472273
RightHand 21.618895 -0.000000 15.011633
RightHandThumb1 -24.326973 -0.000000 -32.862282
LeftShoulder -28.991599 17.276044 42.624755
LeftArm 156.480182 -65.195633 -127.546095
LeftForeArm -44.991983 -0.000000 95.713721
LeftHand -11.291991 -0.000000 -17.960805
LeftHandThumb1 -26.253704 0.000000 33.147579
Head 40.826529 10.068954 10.989317
897
root 2.891933 37.083321 5.082133 -2.868108 -4.225306 1.408123
RightUpLeg 10.967563 -5.462127 -3.998489
RightLeg -4.911757 -0.000000 0.000000
RightFoot -11.352062 -12.158921 16.174695
RightToeBase 12.979386 -0.000000 -0.000000
LeftUpLeg 10.116235 6.585940 3.439349
LeftLeg -2.624273 -0.000000 0.000000
LeftFoot -7.938957 7.642559 -16.953181
LeftToeBase 8.369612 -0.000000 -0.000000
Spine 1.412782 -5.143449 -4.220861
RightShoulder -18.917857 2.805496 -40.997253
RightArm 158.030456 44.495422 121.225434
RightForeArm 73.332652 -0.000000 145.489180
RightHand 21.262047 -0.000000 15.518779
RightHandThumb1 -24.326973 -0.000000 -32.862282
LeftShoulder -29.006953 17.928004 42.409972
LeftArm 158.289393 -64.952227 -129.846439
LeftForeArm -45.005465 0.000000 96.181715
LeftHand -11.221294 -0.000000 -17.611701
LeftHandThumb1 -26.253704 0.000000 33.147579
Head 40.720500 9.981352 11.159367
898
root 2.897260 37.083919 5.093374 -2.849958 -4.085709 1.428477
RightUpLeg 10.980463 -5.511640 -4.020060
RightLeg -4.896685 -0.000000 0.000000
RightFoot -11.393802 -12.250002 16.200655
RightToeBase 12.919909 -0.000000 -0.000000
LeftUpLeg 10.105921 6.504626 3.407879
LeftLeg -2.647673 -0.000000 0.000000
LeftFoot -7.907899 7.581764 -16.975840
LeftToeBase 8.435586 -0.000000 -0.000000
Spine 1.352478 -5.234120 -4.173933
RightShoulder -18.944437 2.713060 -40.799861
RightArm 158.581928 44.870466 120.890155
RightForeArm 72.554015 -0.000000 145.490885
RightHand 21.052495 -0.000000 15.810438
RightHandThumb1 -24.326973 -0.000000 -32.862282
LeftShoulder -29.051544 17.935003 42.475977
LeftArm 158.255039 -64.996440 -130.378484
LeftForeArm -44.796683 -0.000000 96.650060
LeftHand -11.151661 -0.000000 -17.324870
LeftHandThumb1 -26.253704 0.000000 33.147579
Head 40.692578 10.028886 11.461232
899
root 2.904504 37.082769 5.107129 -2.837351 -3.958115 1.437993
RightUpLeg 11.011768 -5.548619 -4.039260
RightLeg -4.897865 -0.000000 0.000000
RightFoot -11.440626 -12.314531 16.227637
RightToeBase 12.936577 -0.000000 -0.000000
LeftUpLeg 10.111466 6.445957 3.387426
LeftLeg -2.686961 -0.000000 0.000000
LeftFoot -7.879409 7.544259 -16.934115
LeftToeBase 8.378898 -0.000000 -0.000000
Spine 1.313366 -5.295736 -4.084551
RightShoulder -18.961652 2.580965 -40.701820
RightArm 159.244064 45.205353 120.767380
RightForeArm 71.905405 -0.000000 145.498527
RightHand 21.116015 -0.000000 15.888268
RightHandThumb1 -24.326973 -0.000000 -32.862282
LeftShoulder -29.032271 17.765177 42.621221
LeftArm 157.965416 -65.218080 -130.729491
LeftForeArm -44.609696 -0.000000 97.111392
LeftHand -11.097616 -0.000000 -17.053530
LeftHandThumb1 -26.253704 0.000000 33.147579
Head 40.651165 10.223872 11.979431
900
root 2.910671 37.081867 5.118531 -2.817982 -3.851133 1.440757
RightUpLeg 11.010696 -5.626293 -4.051224
RightLeg -4.864174 -0.000000 0.000000
RightFoot -11.480934 -12.355317 16.241330
RightToeBase 12.915424 -0.000000 -0.000000
LeftUpLeg 10.107464 6.373913 3.372193
LeftLeg -2.717248 -0.000000 0.000000
LeftFoot -7.865897 7.513520 -16.917312
LeftToeBase 8.399638 -0.000000 -0.000000
Spine 1.264871 -5.326376 -4.008850
RightShoulder -18.982075 2.430696 -40.565933
RightArm 159.833458 45.520813 120.620248
RightForeArm 71.436593 -0.000000 145.503414
RightHand 21.243814 0.000000 15.998442
RightHandThumb1 -24.326973 -0.000000 -32.862282
LeftShoulder -29.043214 17.618866 42.767116
LeftArm 157.590537 -65.346070 -130.965437
LeftForeArm -44.427917 -0.000000 97.552169
LeftHand -11.023599 -0.000000 -17.007470
LeftHandThumb1 -26.253704 0.000000 33.147579
Head 40.579673 10.315827 12.407802
901
root 2.916395 37.081882 5.131203 -2.795032 -3.749624 1.449260
RightUpLeg 11.018436 -5.710179 -4.074603
RightLeg -4.850888 -0.000000 0.000000
RightFoot -11.500372 -12.349145 16.255805
RightToeBase 12.881429 -0.000000 -0.000000
LeftUpLeg 10.107935 6.316672 3.352948
LeftLeg -2.757186 -0.000000 0.000000
LeftFoot -7.847180 7.477480 -16.916224
LeftToeBase 8.440962 -0.000000 -0.000000
Spine 1.195043 -5.373179 -3.927686
RightShoulder -18.986407 2.316560 -40.481424
RightArm 160.341323 45.750991 120.465131
RightForeArm 71.052589 -0.000000 145.464230
RightHand 21.513249 0.000000 15.865394
RightHandThumb1 -24.326973 -0.000000 -32.862282
LeftShoulder -29.014136 17.532817 42.829994
LeftArm 157.493915 -65.503567 -131.389230
LeftForeArm -44.343775 -0.000000 97.962088
LeftHand -11.064580 -0.000000 -16.770353
LeftHandThumb1 -26.253704 0.000000 33.147579
Head 40.510865 10.380216 12.701395
